Coordinates
version=1
nRows=10
nColumns=40
inDegrees=yes

Units are S.I. units (second, meters, Newtons, ...)
Angles are in degrees.

endheader
time	pelvis_tilt	pelvis_list	pelvis_rotation	pelvis_tx	pelvis_ty	pelvis_tz	hip_flexion_r	hip_adduction_r	hip_rotation_r	knee_angle_r	knee_angle_r_beta	ankle_angle_r	subtalar_angle_r	mtp_angle_r	hip_flexion_l	hip_adduction_l	hip_rotation_l	knee_angle_l	knee_angle_l_beta	ankle_angle_l	subtalar_angle_l	mtp_angle_l	lumbar_extension	lumbar_bending	lumbar_rotation	arm_flex_r	arm_add_r	arm_rot_r	elbow_flex_r	pro_sup_r	wrist_flex_r	wrist_dev_r	arm_flex_l	arm_add_l	arm_rot_l	elbow_flex_l	pro_sup_l	wrist_flex_l	wrist_dev_l
     29.77500000	     -6.14840205	     -5.49389591	      3.03536879	      1.02264482	      0.91998135	      0.42304334	      2.76849405	     -0.31447783	    -15.25396047	     26.76343505	     26.76343505	     13.52348884	     -1.92638805	    -14.18427712	     29.16025328	     -7.00188063	     -3.16797711	     26.36780137	     26.36780137	      6.85787930	    -16.20213578	      7.16627495	    -10.11528996	      4.75535928	      3.29918762	     20.94588163	    -16.19597858	      0.79067950	     93.58330294	     44.47163407	      0.00000000	      0.00000000	     -7.49192119	     -7.93886133	      0.03662649	     29.35951642	     45.78329807	      0.00000000	      0.00000000
     29.78742857	     -6.13151104	     -5.33761812	      3.06304191	      1.02329576	      0.92164308	      0.41973155	      4.12276964	     -1.35155522	    -15.17210832	     30.23180964	     30.23180964	     12.18173454	     -2.68012220	    -15.10067598	     28.26211330	     -6.63935276	     -3.34921212	     25.91252699	     25.91252699	      7.31043060	    -16.02459341	      6.99173721	    -10.07676266	      4.70113193	      3.15806904	     19.01771840	    -16.21046522	      0.78105450	     92.37633825	     44.50926682	      0.00000000	      0.00000000	     -6.59631342	     -8.03951516	     -0.14303334	     30.11007558	     45.82470824	      0.00000000	      0.00000000
     29.79985714	     -6.20041282	     -5.19358248	      3.06507484	      1.02375221	      0.92302486	      0.41651560	      5.80362023	     -2.41548327	    -14.94946989	     33.98899062	     33.98899062	     10.31572342	     -3.70795113	    -16.43525468	     27.43974733	     -6.27805105	     -3.46871484	     25.40219436	     25.40219436	      7.71407622	    -15.91516251	      6.79352623	     -9.95871999	      4.62410076	      3.17728676	     17.02483156	    -16.22174252	      0.46798911	     90.86172813	     44.56631000	      0.00000000	      0.00000000	     -5.69241724	     -8.13799869	     -0.42144160	     31.19403767	     45.87955227	      0.00000000	      0.00000000
     29.81228571	     -6.22615515	     -5.18263413	      3.07151002	      1.02414629	      0.92433688	      0.41353014	      7.40034547	     -3.17062613	    -14.42014075	     37.28843141	     37.28843141	      6.44029500	     -6.43744138	    -21.79503647	     26.58910602	     -6.05533456	     -3.50180593	     24.85738892	     24.85738892	      7.83062540	    -15.96963997	      6.16171777	     -9.92674166	      4.68270910	      3.16909263	     15.11394129	    -15.29963244	     -1.72124232	     88.42299595	     44.73933427	      0.00000000	      0.00000000	     -5.51728723	     -8.29198009	     -1.60265322	     34.42130095	     46.04927313	      0.00000000	      0.00000000
     29.82471429	     -6.25899538	     -5.04991666	      3.03162173	      1.02432410	      0.92535212	      0.41058221	      9.41836226	     -4.21404920	    -13.95833185	     41.41221937	     41.41221937	      4.01462575	     -7.65357107	    -22.23675313	     25.78844197	     -5.76405587	     -3.72656681	     24.41981108	     24.41981108	      8.19112381	    -15.75488451	      5.92878621	     -9.90069248	      4.65240486	      3.20538094	     13.23522845	    -15.44412932	     -1.67351998	     86.79425342	     44.78775089	      0.00000000	      0.00000000	     -4.46187024	     -8.40469834	     -1.84859680	     35.46430455	     46.09864618	      0.00000000	      0.00000000
     29.83714286	     -6.24697823	     -5.05507905	      2.98701892	      1.02436863	      0.92622503	      0.40795346	     11.48024825	     -4.88322335	    -13.15179610	     45.36193192	     45.36193192	      0.94023007	     -9.84359924	    -22.90903911	     25.01781662	     -5.63969249	     -3.86534259	     24.06314955	     24.06314955	      8.39439489	    -15.65265507	      5.29512853	     -9.92582111	      4.72223802	      3.18097818	     11.75344412	    -14.84587024	     -2.92849562	     83.59991752	     44.94063726	      0.00000000	      0.00000000	     -3.99943199	     -8.60100629	     -2.52001258	     38.32778775	     46.19928555	      0.00000000	      0.00000000
     29.84957143	     -6.24527811	     -4.93568308	      2.91331749	      1.02429258	      0.92678139	      0.40535418	     13.70895194	     -5.75426606	    -12.43259381	     49.44979151	     49.44979151	     -1.77500426	    -11.13833039	    -22.38588061	     24.29255727	     -5.40574911	     -4.09849735	     23.79477079	     23.79477079	      8.78446157	    -15.44391533	      4.98115709	     -9.98594307	      4.70802775	      3.23557545	      9.98207430	    -14.87143155	     -3.00910480	     81.66415733	     45.00211024	      0.00000000	      0.00000000	     -2.91673162	     -8.80079902	     -2.77658527	     39.69725924	     46.25027839	      0.00000000	      0.00000000
     29.86200000	     -6.17871254	     -4.96313635	      2.84595786	      1.02411209	      0.92728584	      0.40315151	     15.96269560	     -6.24765353	    -11.56718629	     53.41365376	     53.41365376	     -4.05370355	    -12.48390064	    -19.93836718	     23.59117464	     -5.38431510	     -4.36248070	     23.63610651	     23.63610651	      8.96969838	    -15.22266870	      4.07276177	    -10.10599660	      4.76946546	      2.90465041	      9.20678620	    -13.85576913	     -4.49905409	     77.13664672	     45.20539914	      0.00000000	      0.00000000	     -2.89839720	     -9.24034676	     -3.29924121	     43.73482167	     46.34051764	      0.00000000	      0.00000000
     29.87442857	     -6.11494416	     -4.87121914	      2.73110170	      1.02379982	      0.92759164	      0.40097401	     18.21460485	     -6.83811742	    -10.72994242	     57.07420031	     57.07420031	     -6.45804285	    -13.77162276	    -18.65797106	     22.90853328	     -5.22729765	     -4.61206821	     23.53158481	     23.53158481	      9.39352409	    -15.07588467	      3.78008997	    -10.32258948	      4.78444084	      3.11058552	      7.51788955	    -14.01765192	     -4.43608808	     75.16165604	     45.26212406	      0.00000000	      0.00000000	     -1.59990782	     -9.45769431	     -3.51882470	     45.08534284	     46.38959288	      0.00000000	      0.00000000
     29.88685714	     -5.98165101	     -4.96289224	      2.63333027	      1.02342095	      0.92792001	      0.39918512	     20.56337238	     -7.02571844	     -9.81363465	     60.79693202	     60.79693202	     -6.80543194	    -13.78159383	    -11.97756388	     22.23661059	     -5.32998838	     -4.88408672	     23.53793599	     23.53793599	      9.68858943	    -14.76766789	      2.85312423	    -10.49328246	      4.89710918	      2.61708602	      7.49307535	    -13.09148646	     -5.57584915	     69.30204881	     45.49081598	      0.00000000	      0.00000000	     -1.67571006	    -10.06706792	     -3.73746292	     49.55086300	     46.46976343	      0.00000000	      0.00000000
